# Blender v3.0.0 OBJ File: ''
# www.blender.org
mtllib cube.mtl
o Cube
v 1.000000 1.000000 -1.000000
v 1.000000 -1.000000 -1.000000
v 1.000000 1.000000 1.000000
v 1.000000 -1.000000 1.000000
v -1.000000 1.000000 -1.000000
v -1.000000 -1.000000 -1.000000
v -1.000000 1.000000 1.000000
v -1.000000 -1.000000 1.000000
vt 0.745490 0.508789
vt 0.500603 0.753676
vt 0.500603 0.508789
vt 0.745490 0.998564
vt 0.500603 0.998564
vt 0.745490 0.753676
vt 0.990378 0.508789
vt 0.990378 0.753676
vt 0.500603 0.263902
vt 0.745490 0.019015
vt 0.745490 0.263902
vt 0.255716 0.753676
vt 0.255716 0.508789
vt 0.500603 0.019015
vn 0.0000 1.0000 0.0000
vn 0.0000 0.0000 1.0000
vn -1.0000 0.0000 0.0000
vn 0.0000 -1.0000 0.0000
vn 1.0000 0.0000 0.0000
vn 0.0000 0.0000 -1.0000
g Cube_Cube_Material
usemtl Material
s off
f 5/1/1 3/2/1 1/3/1
f 3/2/2 8/4/2 4/5/2
f 7/6/3 6/7/3 8/8/3
f 2/9/4 8/10/4 6/11/4
f 1/3/5 4/12/5 2/13/5
f 5/1/6 2/9/6 6/11/6
f 5/1/1 7/6/1 3/2/1
f 3/2/2 7/6/2 8/4/2
f 7/6/3 5/1/3 6/7/3
f 2/9/4 4/14/4 8/10/4
f 1/3/5 3/2/5 4/12/5
f 5/1/6 1/3/6 2/9/6
